<?xml version="1.0" encoding="UTF-8" standalone="no"?>
<svg
   width="16"
   height="16"
   version="1.1"
   id="svg4"
   sodipodi:docname="compare-open-symbolic.svg"
   inkscape:version="1.1.1 (3bf5ae0d25, 2021-09-20)"
   inkscape:export-filename="/home/eexpss/project/gnome-shell-compare/compare-open-symbolic.png"
   inkscape:export-xdpi="384"
   inkscape:export-ydpi="384"
   xmlns:inkscape="http://www.inkscape.org/namespaces/inkscape"
   xmlns:sodipodi="http://sodipodi.sourceforge.net/DTD/sodipodi-0.dtd"
   xmlns="http://www.w3.org/2000/svg"
   xmlns:svg="http://www.w3.org/2000/svg">
  <defs
     id="defs8">
    <inkscape:path-effect
       effect="bspline"
       id="path-effect958"
       is_visible="true"
       lpeversion="1"
       weight="33.333333"
       steps="2"
       helper_size="0"
       apply_no_weight="true"
       apply_with_weight="true"
       only_selected="false" />
  </defs>
  <sodipodi:namedview
     id="namedview6"
     pagecolor="#ffffff"
     bordercolor="#666666"
     borderopacity="1.0"
     inkscape:pageshadow="2"
     inkscape:pageopacity="0.0"
     inkscape:pagecheckerboard="0"
     showgrid="false"
     inkscape:zoom="33.304047"
     inkscape:cx="8.4674394"
     inkscape:cy="7.7618195"
     inkscape:window-width="1920"
     inkscape:window-height="1008"
     inkscape:window-x="0"
     inkscape:window-y="34"
     inkscape:window-maximized="1"
     inkscape:current-layer="svg4" />
  <path
     d="m 3.1958788,10.910017 -2.26178009,2.26082 c -0.4535088,0.453509 0.22675469,1.133772 0.68026339,0.680263 0,0 0.8357561,-1.582364 1.5815167,-1.582477 0.9058737,-1.38e-4 1.9216484,1.921648 1.9216484,1.921648 0,0 1.0157747,-1.921648 1.9216484,-1.921648 0.9058737,0 1.9216484,1.921648 1.9216484,1.921648 0,0 1.0157751,-1.921648 1.921649,-1.921648 0.905874,0 1.921648,1.921648 1.921648,1.921648 l 2.26178,-2.260819 c 0.453509,-0.453509 -0.226754,-1.133773 -0.680263,-0.680264 0,0 -0.835756,1.582364 -1.581517,1.582478 -0.905873,1.37e-4 -1.921648,-1.921649 -1.921648,-1.921649 0,0 -1.0157749,1.921649 -1.921649,1.921649 -0.9058737,0 -1.9216484,-1.921649 -1.9216484,-1.921649 0,0 -1.0157747,1.921649 -1.9216484,1.921649 -0.9058737,0 -1.9216484,-1.921649 -1.9216484,-1.921649 z"
     fill="#474747"
     font-family="sans-serif"
     font-weight="400"
     overflow="visible"
     style="font-variant-ligatures:normal;font-variant-position:normal;font-variant-caps:normal;font-variant-numeric:normal;font-variant-alternates:normal;font-feature-settings:normal;text-indent:0;text-decoration-line:none;text-decoration-style:solid;text-decoration-color:#000000;text-transform:none;text-orientation:mixed;shape-padding:0;isolation:auto;mix-blend-mode:normal;fill:#000000;fill-opacity:1;stroke-width:0.960824"
     id="path2"
     sodipodi:nodetypes="cccscscscccscscsc" />
  <path
     id="path921"
     style="font-weight:bold;font-size:8px;line-height:1.25;font-family:Suruma;-inkscape-font-specification:'Suruma Bold';letter-spacing:0px;word-spacing:0px;stroke-width:1.42202"
     d="m 5.0430821,1.53125 c -2.2611301,0 -3.3925782,1.3613795 -3.3925782,4.0863828 0,2.7089266 1.109928,4.0645405 3.328125,4.0645405 1.1357653,0 1.9922995,-0.3204042 2.5683594,-0.9592536 C 7.1379041,8.2516719 6.8704363,7.607091 6.7462071,6.7880311 6.6735422,8.3848205 6.3407149,9.1870746 4.9571445,9.1870746 c -1.660071,0 -1.5449218,-1.1550403 -1.5449218,-3.4620491 0,-2.4838525 -0.029212,-3.72416 1.6308594,-3.7241601 1.343087,0 1.6387384,0.815314 1.703125,2.4463691 C 6.8698194,3.6366509 7.1332275,2.9959913 7.5372227,2.5232672 6.9723052,1.8624843 6.1405332,1.53125 5.0430821,1.53125 Z m 5.9138359,0 c -2.26113,0 -3.3925781,1.3613795 -3.3925781,4.0863828 0,2.7089266 1.109928,4.0645405 3.3281251,4.0645405 2.304062,0 3.457031,-1.3158631 3.457031,-3.9444063 0,-2.8053868 -1.131447,-4.206517 -3.392578,-4.206517 z m 0,0.4696154 c 1.660068,0 1.720703,1.2450107 1.720703,3.7369016 0,2.2989704 -0.146572,3.4493076 -1.806641,3.4493076 -1.6600705,0 -1.5449213,-1.1550403 -1.5449214,-3.4620491 0,-2.4838525 -0.029212,-3.7241601 1.6308594,-3.7241601 z"
     sodipodi:nodetypes="sssccsssccsssssssssss" />
</svg>
